<?xml version="1.0" encoding="UTF-8" standalone="no"?>
<!-- Created with Inkscape (http://www.inkscape.org/) -->

<svg
   xmlns:dc="http://purl.org/dc/elements/1.1/"
   xmlns:cc="http://creativecommons.org/ns#"
   xmlns:rdf="http://www.w3.org/1999/02/22-rdf-syntax-ns#"
   xmlns:svg="http://www.w3.org/2000/svg"
   xmlns="http://www.w3.org/2000/svg"
   xmlns:sodipodi="http://sodipodi.sourceforge.net/DTD/sodipodi-0.dtd"
   xmlns:inkscape="http://www.inkscape.org/namespaces/inkscape"
   width="194.81984mm"
   height="214.8685mm"
   viewBox="0 0 690.30652 761.34508"
   id="svg2"
   version="1.1"
   inkscape:version="0.91 r13725"
   sodipodi:docname="eusocial_logo_w_bee.svg">
  <defs
     id="defs4" />
  <sodipodi:namedview
     id="base"
     pagecolor="#ffffff"
     bordercolor="#666666"
     borderopacity="1.0"
     inkscape:pageopacity="0.0"
     inkscape:pageshadow="2"
     inkscape:zoom="0.35"
     inkscape:cx="-237.90538"
     inkscape:cy="307.15188"
     inkscape:document-units="px"
     inkscape:current-layer="layer1"
     showgrid="false"
     inkscape:snap-bbox="true"
     inkscape:snap-bbox-midpoints="true"
     fit-margin-top="0"
     fit-margin-left="0"
     fit-margin-right="0"
     fit-margin-bottom="0"
     showborder="false"
     inkscape:window-width="1920"
     inkscape:window-height="1056"
     inkscape:window-x="0"
     inkscape:window-y="24"
     inkscape:window-maximized="1"
     inkscape:bbox-nodes="true"
     inkscape:snap-to-guides="true"
     showguides="true"
     inkscape:guide-bbox="true"
     inkscape:object-nodes="true"
     inkscape:snap-smooth-nodes="true">
    <sodipodi:guide
       position="827.5,413.92855"
       orientation="1,0"
       id="guide4283" />
    <sodipodi:guide
       position="345.15325,748.84507"
       orientation="0,1"
       id="guide4296" />
  </sodipodi:namedview>
  <metadata
     id="metadata7">
    <rdf:RDF>
      <cc:Work
         rdf:about="">
        <dc:format>image/svg+xml</dc:format>
        <dc:type
           rdf:resource="http://purl.org/dc/dcmitype/StillImage" />
        <dc:title></dc:title>
      </cc:Work>
    </rdf:RDF>
  </metadata>
  <g
     inkscape:label="Layer 1"
     inkscape:groupmode="layer"
     id="layer1"
     transform="translate(-71.989604,-265.9754)">
    <path
       sodipodi:type="star"
       style="fill:#ffcc00;fill-rule:evenodd;stroke:#000000;stroke-width:25;stroke-linecap:butt;stroke-linejoin:round;stroke-miterlimit:4;stroke-dasharray:none;stroke-opacity:1"
       id="path3336"
       sodipodi:sides="6"
       sodipodi:cx="417.14285"
       sodipodi:cy="646.64795"
       sodipodi:r1="368.17255"
       sodipodi:r2="368.17255"
       sodipodi:arg1="0.52359878"
       sodipodi:arg2="1.0471976"
       inkscape:flatsided="true"
       inkscape:rounded="0.1"
       inkscape:randomized="0"
       d="M 735.98963,830.73422 C 717.581,862.6189 453.96011,1014.8205 417.14285,1014.8205 380.3256,1014.8205 116.7047,862.6189 98.296074,830.73422 79.887447,798.84954 79.887448,494.44635 98.296075,462.56167 116.7047,430.677 380.3256,278.4754 417.14285,278.4754 c 36.81726,0 300.43815,152.2016 318.84678,184.08628 18.40863,31.88468 18.40863,336.28787 0,368.17254 z" />
    <path
       style="fill:none;fill-rule:evenodd;stroke:#ffe680;stroke-width:40;stroke-linecap:round;stroke-linejoin:round;stroke-miterlimit:4;stroke-dasharray:none;stroke-opacity:1"
       d="m 151.1971,790.86622 c -0.12481,-7.83066 -1.11127,-28.62669 -2.28975,-55.81612 m -3.44182,-94.17653 c -0.89286,-33.40427 -1.30808,-66.62996 -0.57604,-93.10511 0.73205,-26.47514 2.61137,-46.19975 6.30761,-52.60183 14.78494,-25.60833 223.65623,-132.13549 256.08336,-147.84978"
       id="path3336-5"
       inkscape:connector-curvature="0"
       sodipodi:nodetypes="cccssc" />
    <path
       style="fill:none;stroke:#000000;stroke-width:18.58711815;stroke-linecap:round;stroke-linejoin:round;stroke-miterlimit:4;stroke-dasharray:18.5871182, 37.1742364;stroke-dashoffset:0;stroke-opacity:1"
       d="m 532.36073,330.55347 c 8.92122,-5.87087 17.46271,-11.13839 25.60107,-15.79464 16.27674,-9.3125 30.94099,-16.1799 43.80557,-20.53879 25.72916,-8.71778 44.25968,-7.40151 54.09416,4.45616 19.66896,23.71535 2.94259,87.65369 -46.49947,177.74931 -24.72103,45.04781 -56.60848,94.7899 -93.51449,146.23242 -18.45301,25.72127 -38.16066,51.86764 -58.85447,78.06488 -10.3469,13.09863 -20.94034,26.20997 -31.74677,39.28726"
       id="path4223"
       inkscape:connector-curvature="0"
       sodipodi:nodetypes="cssssssc" />
    <g
       id="g4287"
       transform="matrix(0.53079735,0.44127142,-0.44127142,0.53079735,211.47079,23.236113)">
      <circle
         r="24.674398"
         cy="632.46704"
         cx="899.48962"
         id="path4227"
         style="fill:#000000;fill-opacity:1;stroke:none;stroke-width:20.53199959;stroke-linecap:round;stroke-linejoin:round;stroke-miterlimit:4;stroke-dasharray:20.532, 41.064;stroke-dashoffset:0;stroke-opacity:1" />
      <ellipse
         ry="45.382526"
         rx="34.072704"
         transform="matrix(0.99987942,-0.01552875,0.01552875,0.99987942,0,0)"
         cy="590.59613"
         cx="890.42578"
         id="path4227-5"
         style="fill:#000000;fill-opacity:1;stroke:#000000;stroke-width:10;stroke-linecap:round;stroke-linejoin:round;stroke-miterlimit:4;stroke-dasharray:none;stroke-dashoffset:0;stroke-opacity:1" />
      <g
         transform="matrix(-0.60787533,-0.79403248,0.79403248,-0.60787533,900.2889,1790.1598)"
         id="g4279">
        <path
           style="fill:#ffffff;fill-opacity:1;stroke:#000000;stroke-width:10;stroke-linecap:round;stroke-linejoin:round;stroke-miterlimit:4;stroke-dasharray:none;stroke-dashoffset:0;stroke-opacity:1"
           d="m 955.91816,772.39191 c 0,24.85282 -14.39085,31 -32.14286,31 -17.75201,0 -32.14286,-6.14718 -32.14286,-31 0,-24.85282 32.14286,-59 32.14286,-59 0,0 32.14286,34.14718 32.14286,59 z"
           id="path4261"
           inkscape:connector-curvature="0"
           sodipodi:nodetypes="ssscs" />
        <path
           style="fill:#ffffff;fill-opacity:1;stroke:#000000;stroke-width:10;stroke-linecap:round;stroke-linejoin:round;stroke-miterlimit:4;stroke-dasharray:none;stroke-dashoffset:0;stroke-opacity:1"
           d="m 982.63171,658.98336 c 24.29069,-5.25616 33.34229,7.50909 37.09669,24.85954 3.7544,17.35046 0.7899,32.71586 -23.5008,37.97202 -24.29064,5.25616 -64.46335,-18.93778 -64.46335,-18.93778 0,0 26.57682,-38.63762 50.86746,-43.89378 z"
           id="path4261-6"
           inkscape:connector-curvature="0"
           sodipodi:nodetypes="ssscs" />
      </g>
      <path
         inkscape:transform-center-y="-1.4799155"
         d="m 906.10445,529.62449 c -0.66148,1.14573 -12.56817,1.14573 -13.22965,0 -0.66149,-1.14572 5.29186,-11.45722 6.61482,-11.45722 1.32297,0 7.27632,10.3115 6.61483,11.45722 z"
         inkscape:randomized="0"
         inkscape:rounded="0.1"
         inkscape:flatsided="true"
         sodipodi:arg2="1.5707963"
         sodipodi:arg1="0.52359878"
         sodipodi:r2="3.8190732"
         sodipodi:r1="7.6381464"
         sodipodi:cy="525.80542"
         sodipodi:cx="899.48962"
         sodipodi:sides="3"
         id="path4285"
         style="fill:#000000;fill-opacity:1;stroke:#000000;stroke-width:4.58475924;stroke-linecap:round;stroke-linejoin:round;stroke-miterlimit:4;stroke-dasharray:none;stroke-dashoffset:0;stroke-opacity:1"
         sodipodi:type="star" />
    </g>
  </g>
</svg>
